<?xml version="1.0" encoding="UTF-8"?><svg id="Layer_1" xmlns="http://www.w3.org/2000/svg" xmlns:xlink="http://www.w3.org/1999/xlink" viewBox="0 0 430 430"><defs><filter id="outer-glow-1" filterUnits="userSpaceOnUse"><feOffset dx="0" dy="0"/><feGaussianBlur result="blur" stdDeviation="5"/><feFlood flood-color="#000" flood-opacity=".2"/><feComposite in2="blur" operator="in"/><feComposite in="SourceGraphic"/></filter><clipPath id="clippath"><circle cx="215" cy="215" r="139" style="fill:none; stroke-width:0px;"/></clipPath></defs><g id="Standard"><circle cx="215" cy="215" r="200" style="fill:#fff; filter:url(#outer-glow-1); stroke-width:0px;"/><circle cx="215" cy="215" r="192" style="fill:#e50511; stroke-width:0px;"/><path d="m64.46,244.71l2.22,7.64-15.09,10.36,18.29.63,2.2,7.57-24.68,7.19-1.76-6.05,14.65-4.27-16.04-.5-1.38-4.74,13.21-8.98-14.59,4.25-1.72-5.91,24.68-7.19Z" style="fill:#fff; stroke-width:0px;"/><path d="m61.44,278.71c2.57-1.3,4.98-1.96,7.24-1.96,2.26,0,4.3.6,6.12,1.82,1.82,1.22,3.32,3,4.52,5.36,1.78,3.51,2.15,6.78,1.09,9.81-1.06,3.03-3.5,5.52-7.33,7.46-2.57,1.31-4.98,1.97-7.25,1.99-2.27.02-4.31-.58-6.12-1.79s-3.33-3.01-4.54-5.39c-1.77-3.49-2.13-6.75-1.06-9.8,1.06-3.04,3.51-5.54,7.34-7.49Zm3.29,6.32c-2.18,1.11-3.65,2.37-4.39,3.79-.75,1.42-.71,2.94.12,4.56.84,1.65,2.05,2.59,3.63,2.82s3.47-.21,5.65-1.32c2.16-1.1,3.62-2.36,4.38-3.78.76-1.42.72-2.96-.12-4.6-.83-1.63-2.04-2.55-3.63-2.78-1.6-.23-3.47.21-5.63,1.31Z" style="fill:#fff; stroke-width:0px;"/><path d="m84.14,304.94l-4.4-6.1,4.82-3.47,12.82,17.78-4.82,3.47-4.4-6.1-16.03,11.56-4.02-5.58,16.03-11.56Z" style="fill:#fff; stroke-width:0px;"/><path d="m88.1,322.33c2.05-2.02,4.15-3.38,6.3-4.07,2.15-.69,4.28-.73,6.38-.12,2.1.61,4.08,1.85,5.93,3.73,2.76,2.8,4.1,5.81,4.01,9.01-.09,3.21-1.67,6.32-4.72,9.33-2.05,2.02-4.15,3.39-6.3,4.09-2.15.71-4.28.75-6.38.15-2.1-.61-4.08-1.86-5.96-3.76-2.75-2.79-4.07-5.79-3.98-9.01.09-3.22,1.67-6.34,4.73-9.36Zm5.06,5.03c-1.74,1.72-2.76,3.37-3.04,4.94s.22,3.01,1.5,4.31c1.3,1.32,2.74,1.84,4.32,1.58,1.58-.26,3.24-1.25,4.99-2.97,1.73-1.7,2.73-3.35,3.03-4.93.29-1.58-.21-3.04-1.51-4.35-1.28-1.3-2.71-1.81-4.3-1.54-1.59.27-3.25,1.25-4.97,2.96Z" style="fill:#fff; stroke-width:0px;"/><path d="m116.99,332.65l8.35,6.09c2.87,2.09,4.53,4.2,4.98,6.33s-.06,4.2-1.53,6.22c-1.98,2.71-4.48,3.9-7.51,3.57l-1.73,11.48-5.76-4.2,1.75-9.73c-.1-.07-.19-.14-.28-.2-.09-.06-.18-.13-.28-.2l-2.68-1.95-5.24,7.18-5.24-3.82,15.15-20.77Zm6.34,15.01c.64-.87.86-1.7.68-2.49s-.88-1.63-2.11-2.52l-2.73-1.99-3.84,5.26,2.82,2.06c1.2.88,2.2,1.27,3,1.17.8-.1,1.53-.59,2.18-1.49Z" style="fill:#fff; stroke-width:0px;"/><path d="m128.74,357.17c1.34-2.6,2.93-4.58,4.76-5.93,1.83-1.35,3.82-2.07,5.98-2.16s4.37.45,6.65,1.63c2.86,1.48,4.71,3.3,5.56,5.48.85,2.18.83,4.7-.06,7.57l-6.44-2.43c.36-1.33.4-2.43.12-3.3-.28-.87-.98-1.6-2.11-2.18-1.45-.75-2.85-.74-4.2.02-1.35.76-2.59,2.23-3.71,4.4-1.13,2.2-1.62,4.07-1.45,5.63.17,1.56,1.02,2.73,2.55,3.53,1.21.63,2.31.77,3.28.44.97-.34,1.84-1.05,2.62-2.13l6.11,3.15c-1.62,2.67-3.72,4.36-6.3,5.07-2.58.71-5.43.26-8.54-1.35-3.48-1.79-5.63-4.21-6.48-7.23-.84-3.03-.29-6.43,1.66-10.2Z" style="fill:#fff; stroke-width:0px;"/><path d="m157.68,373.76l-3.02-17.82,6.99,2.36,1.15,11.22,7.82-8.19,6.75,2.28-13.15,12.35-3.14,9.28-6.55-2.21,3.14-9.28Z" style="fill:#fff; stroke-width:0px;"/><path d="m173.26,375.99c.53-2.88,1.48-5.23,2.84-7.05,1.36-1.82,3.06-3.09,5.1-3.8,2.03-.71,4.31-.83,6.84-.36,3.16.58,5.46,1.8,6.91,3.64,1.44,1.84,2.15,4.26,2.14,7.26l-6.87-.46c-.04-1.37-.32-2.44-.84-3.19s-1.4-1.25-2.66-1.48c-1.61-.3-2.94.11-4.02,1.23-1.07,1.12-1.83,2.88-2.28,5.29-.45,2.43-.37,4.37.24,5.81.61,1.44,1.77,2.32,3.47,2.64,1.34.25,2.43.07,3.26-.53s1.46-1.54,1.89-2.8l6.76,1.25c-.78,3.03-2.3,5.25-4.57,6.68-2.26,1.42-5.12,1.82-8.56,1.18-3.85-.71-6.61-2.39-8.29-5.05s-2.14-6.07-1.36-10.25Z" style="fill:#fff; stroke-width:0px;"/><path d="m200.88,367.38l6.87.25-.73,19.75,11.44.42-.87,5.91-17.66-.65.95-25.69Z" style="fill:#fff; stroke-width:0px;"/><path d="m221.29,367.71l6.86-.43,1.61,25.65-6.86.43-1.61-25.65Z" style="fill:#fff; stroke-width:0px;"/><path d="m248.75,382.92c-.11-.64-.4-1.13-.88-1.47s-1.3-.52-2.47-.54l-3.48-.05c-2.88-.06-5.11-.56-6.68-1.52-1.57-.96-2.54-2.52-2.92-4.7-.45-2.55.15-4.68,1.77-6.38,1.63-1.7,4.05-2.83,7.27-3.39,3.24-.56,5.83-.32,7.76.73s3.24,2.7,3.9,4.95l-6.44,1.85c-.44-.99-.99-1.67-1.65-2.03-.66-.36-1.6-.43-2.83-.22-1.25.22-2.13.58-2.64,1.1-.51.52-.7,1.12-.58,1.8.12.66.42,1.13.9,1.41.49.28,1.29.43,2.42.46l3.56.07c3.01.08,5.27.62,6.78,1.59,1.51.98,2.46,2.56,2.83,4.73.45,2.58-.11,4.76-1.67,6.54s-4.1,2.98-7.6,3.59c-3.38.59-6.14.33-8.29-.78-2.14-1.11-3.59-3.11-4.34-6l6.7-1.17c.4,1.17,1.03,1.97,1.9,2.39.86.42,2.02.51,3.46.25,1.32-.23,2.22-.63,2.7-1.18.47-.56.64-1.24.5-2.04Z" style="fill:#fff; stroke-width:0px;"/><path d="m261.76,366.78l-7.14,2.37-1.87-5.64,20.81-6.9,1.87,5.64-7.14,2.37,6.22,18.76-6.53,2.17-6.22-18.76Z" style="fill:#fff; stroke-width:0px;"/><path d="m295.96,365.93c-.29-.58-.72-.96-1.27-1.15-.55-.19-1.39-.12-2.52.21l-3.34.97c-2.78.79-5.05.95-6.83.49-1.78-.46-3.17-1.67-4.16-3.64-1.17-2.31-1.23-4.52-.16-6.62,1.06-2.1,3.05-3.88,5.96-5.36,2.93-1.49,5.48-2.01,7.64-1.57s3.88,1.64,5.17,3.6l-5.62,3.65c-.71-.82-1.44-1.31-2.17-1.46-.74-.15-1.66.05-2.77.62-1.13.58-1.87,1.18-2.21,1.82-.33.64-.34,1.27-.03,1.89.3.6.73.96,1.28,1.09.55.13,1.36.04,2.45-.27l3.42-.97c2.91-.8,5.22-.95,6.95-.46,1.73.5,3.09,1.73,4.09,3.7,1.18,2.33,1.29,4.58.31,6.74-.98,2.16-3.05,4.05-6.22,5.65-3.06,1.55-5.78,2.11-8.15,1.67-2.38-.44-4.34-1.93-5.9-4.48l6.07-3.07c.72,1,1.56,1.58,2.51,1.73.95.15,2.08-.1,3.39-.77,1.2-.61,1.94-1.25,2.24-1.92.29-.67.25-1.37-.12-2.1Z" style="fill:#fff; stroke-width:0px;"/><path d="m309.01,352.06c-1.74-2.17-2.86-4.37-3.37-6.57-.5-2.21-.37-4.33.4-6.36.77-2.03,2.19-3.87,4.25-5.52,2.44-1.95,4.85-2.93,7.23-2.95,2.38-.02,4.56.86,6.53,2.64l-4.97,4.8c-.88-.68-1.73-1.03-2.56-1.07s-1.72.34-2.7,1.12c-1.03.82-1.65,1.74-1.87,2.74-.21,1-.1,2.06.34,3.16.44,1.11,1.14,2.26,2.1,3.46,1.63,2.04,3.23,3.26,4.79,3.66,1.56.4,3.18-.08,4.87-1.43,1.33-1.06,2.23-2.17,2.7-3.31l-1.98-2.47-3.32,2.65-3.33-4.16,8.3-6.63,7.3,9.14c-.4,1.77-1.16,3.48-2.28,5.14-1.12,1.66-2.47,3.13-4.06,4.4-3.22,2.58-6.43,3.65-9.62,3.22-3.19-.43-6.11-2.32-8.78-5.65Z" style="fill:#fff; stroke-width:0px;"/><path d="m321.35,325.16l6.95-7.64c2.39-2.63,4.67-4.05,6.83-4.27,2.16-.22,4.17.51,6.02,2.19,2.49,2.26,3.4,4.88,2.74,7.85l11.22,2.96-4.79,5.27-9.49-2.79c-.08.09-.16.17-.23.25-.07.08-.15.16-.23.25l-2.23,2.45,6.58,5.98-4.36,4.79-19.01-17.29Zm15.6-4.69c-.8-.73-1.6-1.04-2.4-.94s-1.71.71-2.73,1.82l-2.28,2.5,4.82,4.38,2.35-2.58c1-1.1,1.49-2.05,1.48-2.86-.01-.81-.43-1.58-1.24-2.32Z" style="fill:#fff; stroke-width:0px;"/><path d="m346.94,316.08c-2.41-1.58-4.18-3.34-5.31-5.3-1.13-1.96-1.62-4.03-1.47-6.21.15-2.18.95-4.38,2.39-6.59,2.15-3.29,4.81-5.24,7.96-5.83,3.15-.59,6.53.29,10.12,2.63,2.41,1.58,4.19,3.34,5.34,5.29,1.15,1.95,1.65,4.02,1.5,6.2-.15,2.18-.95,4.39-2.41,6.62-2.14,3.28-4.79,5.21-7.96,5.81-3.17.6-6.55-.28-10.15-2.63Zm3.84-6.01c2.05,1.34,3.88,1.98,5.48,1.92,1.6-.06,2.9-.85,3.9-2.38,1.01-1.55,1.22-3.06.63-4.55-.59-1.49-1.91-2.9-3.96-4.24-2.03-1.33-3.85-1.96-5.46-1.91-1.61.05-2.92.85-3.93,2.4-1,1.53-1.2,3.04-.6,4.53s1.91,2.91,3.94,4.23Z" style="fill:#fff; stroke-width:0px;"/><path d="m364.62,291.93l-13.8-6.01,2.75-6.3,14.09,6.14c1.61.7,2.91.92,3.91.66,1-.26,1.79-1.04,2.35-2.33.57-1.3.6-2.4.1-3.29-.5-.9-1.55-1.7-3.16-2.4l-14.09-6.14,2.75-6.3,13.83,6.02c3.45,1.5,5.67,3.49,6.63,5.95s.74,5.33-.69,8.61c-1.42,3.26-3.34,5.35-5.76,6.29-2.42.93-5.39.64-8.91-.9Z" style="fill:#fff; stroke-width:0px;"/><path d="m360.39,263.1l2.44-9.3c.92-3.5,2.31-5.85,4.16-7.04,1.85-1.19,4.11-1.43,6.78-.73,2.72.71,4.6,2.05,5.66,4.02,1.06,1.97,1.13,4.68.23,8.14l-.77,2.92,8.04,2.11-1.68,6.41-24.86-6.53Zm11.86-10.99c-1.12-.29-2-.22-2.64.22-.65.44-1.16,1.38-1.54,2.82l-.77,2.92,6.37,1.67.77-2.92c.38-1.46.38-2.54,0-3.24s-1.12-1.19-2.18-1.47Z" style="fill:#fff; stroke-width:0px;"/><path d="m46.13,157.32l2.53-6.4,18.38,7.26,4.21-10.65,5.29,2.79-6.49,16.44-23.91-9.44Z" style="fill:#fff; stroke-width:0px;"/><path d="m55.29,135.79l3.18-6.1,22.79,11.88-3.18,6.1-22.79-11.88Z" style="fill:#fff; stroke-width:0px;"/><path d="m72.06,131.44c-2.42-1.65-4.18-3.47-5.3-5.45s-1.58-4.05-1.41-6.2c.18-2.15.99-4.28,2.44-6.4,1.82-2.65,3.86-4.27,6.12-4.84,2.27-.57,4.77-.24,7.5.99l-3.21,6.09c-1.27-.52-2.36-.7-3.26-.53s-1.71.78-2.43,1.83c-.92,1.35-1.09,2.74-.5,4.17s1.89,2.84,3.91,4.22c2.04,1.4,3.84,2.11,5.41,2.13,1.57.03,2.84-.68,3.81-2.1.77-1.13,1.05-2.2.84-3.2-.21-1-.81-1.96-1.79-2.86l3.88-5.68c2.45,1.94,3.87,4.23,4.26,6.88.38,2.65-.41,5.42-2.39,8.31-2.21,3.23-4.87,5.08-7.97,5.54s-6.42-.5-9.92-2.9Z" style="fill:#fff; stroke-width:0px;"/><path d="m100.75,99.05l-5.89,6.12,7.36,7.09-4.77,4.95-18.51-17.83,4.77-4.95,6.77,6.52,5.89-6.12-6.77-6.52,4.77-4.95,18.51,17.83-4.77,4.95-7.36-7.09Z" style="fill:#fff; stroke-width:0px;"/><path d="m100.22,78.42l13.98-10.7,3.35,4.38-8.64,6.61,3.24,4.23,8.15-6.23,3.35,4.38-8.15,6.23,5.69,7.43-5.35,4.09-15.62-20.42Z" style="fill:#fff; stroke-width:0px;"/><path d="m119.07,64.76l5.86-3.59,13.43,21.92-5.86,3.59-13.43-21.92Z" style="fill:#fff; stroke-width:0px;"/><path d="m130.77,57.67l16.69-7.9,2.31,4.88-10.58,5.01,1.94,4.1,9.92-4.7,2.33,4.91-9.92,4.7,2.11,4.46,11.19-5.3,1.79,5.13-16.79,7.95-11-23.23Z" style="fill:#fff; stroke-width:0px;"/><path d="m153.78,47.38l6.56-2.05,5.9,18.86,10.93-3.42,1.15,5.86-16.87,5.28-7.67-24.53Z" style="fill:#fff; stroke-width:0px;"/><path d="m177.18,40.46l10.04-1.51c4.18-.63,7.52-.06,10.03,1.71,2.51,1.77,4.08,4.73,4.71,8.88.63,4.2-.02,7.57-1.95,10.11s-5,4.12-9.2,4.75l-9.79,1.48-3.83-25.42Zm17.89,10.23c-.34-2.28-1.07-3.93-2.19-4.97-1.12-1.03-2.66-1.4-4.63-1.1l-3.56.54,2.11,13.99,3.38-.51c2.04-.31,3.45-1.13,4.23-2.48.78-1.34,1-3.17.65-5.47Z" style="fill:#fff; stroke-width:0px;"/><path d="m230.06,58.22l-8.91-.6-1.88,4.82-6.79-.46,10.49-25.06,8.3.56,7.01,26.23-7-.47-1.21-5.02Zm-3.44-15.35l-3.52,9.4,5.75.39-2.23-9.78Z" style="fill:#fff; stroke-width:0px;"/><path d="m246.24,39.17l9.87,2.39c4.11,1,6.99,2.79,8.64,5.37,1.66,2.59,1.99,5.92,1,10-1,4.13-2.88,7-5.63,8.62-2.75,1.62-6.19,1.93-10.32.93l-9.62-2.33,6.05-24.98Zm12.7,16.23c.54-2.24.49-4.05-.15-5.43-.64-1.38-1.93-2.3-3.87-2.77l-3.5-.85-3.33,13.75,3.32.81c2.01.49,3.62.25,4.85-.69,1.23-.95,2.12-2.55,2.67-4.82Z" style="fill:#fff; stroke-width:0px;"/><path d="m276.71,67.74l11.96-15.13,6.74,2.82-17.67,20.47-7.77-3.25,2.26-26.92,6.87,2.88-2.4,19.14Z" style="fill:#fff; stroke-width:0px;"/><path d="m300.07,82.44l-7.64-4.62-3.88,3.42-5.82-3.52,20.81-17.45,7.12,4.3-5.81,26.52-6.01-3.63,1.23-5.02Zm3.98-15.22l-7.44,6.74,4.93,2.98,2.51-9.72Z" style="fill:#fff; stroke-width:0px;"/><path d="m323.16,72.93l4.55,3.93-2.6,17.55,9.79-11.33,4.88,4.21-16.81,19.45-4.47-3.86,2.59-17.7-9.86,11.41-4.88-4.21,16.81-19.45Z" style="fill:#fff; stroke-width:0px;"/><path d="m334.8,100.75c2.25-1.87,4.49-3.07,6.7-3.59,2.21-.53,4.33-.41,6.35.35,2.02.76,3.84,2.13,5.48,4.1,2.05,2.48,3.04,4.88,2.97,7.22-.07,2.34-1.08,4.65-3.01,6.94l-4.98-4.76c.85-1.08,1.32-2.08,1.4-2.99.09-.91-.28-1.86-1.09-2.84-1.04-1.26-2.33-1.8-3.87-1.63-1.54.17-3.25,1.04-5.14,2.6-1.9,1.58-3.08,3.12-3.54,4.62-.46,1.5-.13,2.92.97,4.25.87,1.05,1.82,1.61,2.85,1.68,1.02.07,2.11-.24,3.25-.94l4.39,5.29c-2.54,1.83-5.13,2.56-7.79,2.2s-5.09-1.89-7.33-4.58c-2.5-3.01-3.54-6.08-3.13-9.19.41-3.12,2.25-6.03,5.52-8.74Z" style="fill:#fff; stroke-width:0px;"/><path d="m363.47,116.02l9.48,15.85-4.63,2.77-6-10.04-3.89,2.33,5.63,9.42-4.67,2.79-5.63-9.42-4.23,2.53,6.35,10.63-4.93,2.28-9.53-15.94,22.06-13.19Z" style="fill:#fff; stroke-width:0px;"/><path d="m376.24,138.21l3.79,9.42c1.58,3.92,1.79,7.3.65,10.16-1.14,2.85-3.66,5.06-7.56,6.63-3.94,1.58-7.37,1.73-10.28.43-2.92-1.3-5.16-3.92-6.75-7.86l-3.69-9.19,23.85-9.58Zm-5.83,19.76c2.14-.86,3.58-1.95,4.33-3.27.75-1.32.75-2.91,0-4.76l-1.34-3.34-13.13,5.28,1.28,3.17c.77,1.92,1.9,3.1,3.38,3.55,1.49.45,3.31.24,5.47-.63Z" style="fill:#fff; stroke-width:0px;"/><circle cx="381" cy="215" r="7" style="fill:#fff; stroke-width:0px;"/><circle cx="49" cy="215" r="6.5" style="fill:#fff; stroke-width:0px;"/><circle cx="215" cy="215" r="139" style="fill:#00afe5; stroke-width:0px;"/><g style="clip-path:url(#clippath);"><path d="m179.81,378.74c-.4-.36-8.54-36.3-11.21-41.2-3.45-6.32-10.1-10.83-20.98-28.07-8-12.67-2.43-9.98-12.26-22.25-5.44-6.79-3.78-3.28-11.11-13.77-2.21-3.15,4.75-12.45-8.25-20.45-8.47-5.21,10.06-31.15,8.25-33.87-2.68-4.02-14.28-.07-19.98.43-1.34.12-18.44,1.91-19.26-16.81-.6-13.72,18.98-14.17,21.99-13.75,17.53,2.49,17,16,22,11,5.59-5.59,10.29-37.11,13-44,3.16-8.05,21-19,21-20,0-5.1-1.8-21.98-.82-25.42,4.17-14.51,8.52-19.54,16.82-22.58,14.11-5.17,28.21-2.72,36,4,12.92,11.15,13.01,31.15,12,38,6.63-.16,11.46-1.71,18,0,11.45,4.93,17.2,16.07,19,26,2.44,13.5,16.43,22.15,21.05,28.64,5.38,7.54,23.21,15.36,27.59,20.5,5.17,6.06-5.3,20.83.35,26.86,20.98,22.39,7,31.04,6,39-.6,4.79,1.11,18.22,3,22,5,10,7.56,23.1,8,27,.46.77,4.02,1.81,5.51,2.35,3.01.41,6.66-.38,9.47,2.26.47,4.64-5.6,5.14-5.57,10.07,4.94,14.85,5.6,30.63,1.96,46.67-.88.1-1.43.21-1.99.22-.41,0-.82-.12-1.5-.24" style="fill:#fff; stroke-width:0px;"/><path d="m134.94,270.48-.66-.49c-1.46-1.72-1.89-3.38-1.83-5.38.1-3.24-1.22-5.92-3.47-8.13-1.54-1.52-3.22-2.91-4.84-4.34-5.27-4.65-6.04-8.28-3.03-14.59.81-1.69,5.03-9.87,5.87-11.54-1.68,1.07-6.16,8.92-7.08,10.37-4.27,6.74-3.9,11.72,1.3,17.78,1.41,1.65,2.92,3.21,4.34,4.84,1.6,1.82,2.45,3.84,1.87,6.37-.69,3.06.51,5.71,2.3,8.08,1.13,1.49,2.35,2.98,3.77,4.18,5.46,4.59,8.86,10.59,11.98,16.83,5.94,11.9,11.69,23.88,21.51,33.34,4.76,4.58,7.01,5.21,8.53,17.06,1.4,10.95,5.24,18.95,9.08,29.27.91,2.31.85,4.68-4.79,4.6-.4-.36-8.54-36.3-11.21-41.2-3.45-6.32-10.1-10.83-20.98-28.07-8-12.67-2.43-9.98-12.26-22.25-5.44-6.79-4.06-3.08-11.11-13.77-4.25-6.44,2.73-7.27-8.72-18.33-12.53-12.11,10.53-33.27,8.72-35.99-2.68-4.02-14.28-.07-19.98.43-1.34.12-18.44,1.91-19.26-16.81-.6-13.72,20.28-15.66,23.28-15.23,17.53,2.49,16.99,14.51,19.59,11.31,4.98-6.13,10.17-39.45,13.03-46.27,6.08-14.53,21.08-18.53,21.08-18.53-2-10-2-18-1-24,2.48-14.9,10.13-19.57,18.43-22.62,14.11-5.17,27.85-3.32,35.64,3.4,12.92,11.15,14.6,30.51,13.59,37.36,6.63-.16,9.74-1.44,16.27.28,11.45,4.93,17.77,16.38,19.57,26.31,2.44,13.5,15.92,23.4,20.55,29.89,5.38,7.54,23.56,15.24,27.95,20.38,5.17,6.06-5.3,20.64,1,26,20,17,9,34,8,36-3,7-2.7,11.9,1,25,3.99,14.14,9.57,24.11,10,28.01.46.77,1.02,1.79,2.5,2.33,3.01.41,6.66-.38,9.47,2.26.47,4.64-5.6,5.14-5.57,10.07,4.94,14.85,5.6,30.63,1.96,46.67-.88.1-1.43.21-1.99.22-.41,0-.82-.12-1.5-.24,2.41-7.81,2.74-15.72,2.08-23.66-.66-7.95-1.7-15.87-6.46-23.01-3.22,5.11-.15,11.55-4.68,15.63-2.78,1.45-5.33-1.51-8.38-.17,3.1,2.93,6.13,5.22,10.15,5.55.68,6.77-1.87,13.32-6.46,16.44-7.33-1.53-11.99-6.69-15.95-13.6-.54,2.72.19,4.33.83,5.89,1.72,4.21,4.41,7.8,7.7,10.9,1.83,1.72,2.71,3.79,3.46,6.29-13.74,0-27.04.01-40.34-.02-1.14,0-2.28-.31-3.42-.47.75-1.32,2.05-1.93,3.28-2.71,3.54-2.24,7.09-4.49,10.42-7.02,5.67-4.29,8.37-12.62,6.34-19.33-1.39,2.35-1.49,4.85-2.07,7.15-1.1,4.43-3.78,7.37-7.83,9.23-1.84.85-3.82,1.47-5.49,2.57-6.21,4.08-13.03,4.21-20.06,3.5-7.92-.8-15.85-1.3-23.75.25-.72.14-1.44.11-2.22-1.06,3.45-11.22,9.5-21.58,15.36-31.98,5.81-10.29,14.88-24.2,23.59-32.7-1.06.12-4.28,2.57-5,3-.87.52-3.27,2.32-4,3-10.85,10.03-20.43,20.77-24.91,35.15-2.56,8.24-5.85,16.32-6.37,25.12-1.84,1.1-3.58,1.99-5.43,1.77-1.2-.88-1.24-1.91-1.28-2.93-.43-11.55-.78-23.06,1.52-34.52,2.37-11.82,3.1-23.78,1.24-35.78-1.3-8.38-3.84-16.3-8.7-23.36-.91-1.33-2.07-2.45-4-3.54,4.92,6.09,7.71,16.13,7.92,22.09-2.74-5.34-6-14-10.27-21.46.95,3.83,2.15,7.52,2.72,11.37,1.71,11.58,3.94,23.07,6.53,34.49.42,1.87.56,3.74.23,5.6-.7,4.01-.64,8.06-.84,12.11-.49,10.29.27,20.5,1.86,30.66.39,2.5,1.9,4.89.17,7.65,1.02-.06,1.45,0,1.83-.11,7.79-2.21,15.67-2.6,23.58-.88,8.5,1.85,17,3.4,25.75,2.55-.85.75-1.89.6-2.89.6-15.62,0-31.24,0-46.86-.02-.98,0-2.04.26-3.06-.73-.12-2.68-.25-5.54-.39-8.83-1.22,1.71-1.3,3.25-1.47,4.81-.16,1.54.16,3.23-1.2,4.62h-28.15c-1.83-3.41-2.72-7.08-3.92-10.62-4.51-13.29-7.72-26.94-10.84-40.61-2.65-11.58-4.9-20.25-4.77-32.2-.26-2.42,1.31-12.44,3-20-2.66,7.88-5,14-5,29.63,0,7.35,1,17.37,2,22.37.88,4.4,2,10,2,11-2.42-2.73-6.19-15.12-6.18-18.79,0-4.18-.17-8.39-.69-12.54-.78-6.33-3.13-14.67-3.13-21.67-1,6-1.83,13.82-2,19-.17,5.3,4.68,15.94,6,21-2.02-1.68-7.35-10.58-8.55-12.71-2.98-5.31-5.14-11-7.43-16.62-3.65-8.98-7.04-18.08-14.79-24.58,0,0-2.23-2.09-3.94-4.1Zm75.97-82.22c10-5,17.16-9.42,26.34-11.5,1.12-.26,2.24-.6,3.33-.98,2.47-.86,4.82-2,6.88-3.62,4.08-3.24,5.14-7.65,4.07-12.47-.98-4.43-4.33-6.6-8.61-7.51-5.71-1.21-11.19-.64-16.47,1.88-6.93,3.31-9.46,7.79-8.01,15.38.72,3.79-.2,6.74-2.61,9.58-3.49,4.12-6.76,8.42-10.42,12.41m123.05,142.48c-2.13.1-3.21,1.05-4.38,1.79-2.93,1.85-5.83,3.75-8.81,5.52-9.92,5.91-21.95,1.28-27.33-7.18-1.87-2.94-3.37-6.09-4.33-9.43-3.03-10.59-5.49-21.25-4.77-32.42.32-5.05.23-10.21-1.41-15.04-3.65-10.72-9.67-20.03-18.15-27.58-5.22-4.65-11.32-7.44-18.55-7.12-1.58.07-3.18-.06-4.76-.19-1.64-.13-3.14-.55-3.83-2.37.04-1.99,1.49-3.34,2.4-4.95,1.29-2.29,1.65-4.62.25-6.99-.75-1.26-1.82-2.24-3.05-3.03-6.26-4.05-11.41-9.29-16.2-14.93-1.44-1.7-2.66-3.65-4.52-4.98-.43.61-.06.89.18,1.22,5.49,7.47,11.18,14.74,18.72,20.33,1.49,1.1,2.97,2.37,2.95,4.53-.39,1.78-1.69,3.01-2.65,4.44-3.35,4.99-1.5,9.48,4.42,10.57,2.13.39,4.3.75,6.45.75,5.56,0,10.27,2.23,14.01,5.99,10.44,10.49,18.54,22.26,17.98,37.99-.44,12.22,2.53,23.77,6.48,35.17,1.34,3.87,3.2,7.49,5.7,10.66,6.01,7.62,13.85,11.02,23.63,9.52,4.63-.71,8.24-3.39,11.89-5.95,2.53-1.78,5.3-3.33,7.69-6.32Zm-52.79-114.41c-.33,1.17,4,5,10.96,13.27,4.7,4.37,7.66,9.61,8.87,16,.95,5,3.05,9.63,6.35,13.62,3.83,4.63,5.82,9.9,5.71,15.96-.12,6.9,2.25,13.02,6.08,18.66,1.7,2.51,3.35,5.06,4.99,7.61,1.56,2.44,3.01,4.95,3.88,7.73,1.27,4.06.98,8-1.13,11.73-1.83,3.25-4.9,4.42-8.38,4.46-3.51.04-4.88-2.61-5.97-5.4-1.33-3.42-1.53-7.05-1.86-10.63-.63-6.78-2.72-12.66-8.95-16.43-2.6-1.57-4.1-3.99-4.11-7.19,0-3.04-1.51-5.21-4.15-6.61-2.52-1.34-4.31-3.36-5.57-5.88-1.16-2.33-2.29-4.67-3.4-7.02-1.32-2.79-9.61-13.12-12.32-14.88,3.09,3.78,10.81,16.29,12.71,20.58,1.66,3.76,3.71,7.19,7.27,9.47,2.04,1.31,2.68,3.22,2.62,5.58-.1,3.6,1.46,6.52,4.48,8.4,3.9,2.43,5.7,6.03,6.3,10.36.34,2.43.43,4.89.63,7.34.31,3.9.85,7.75,2.35,11.41,1.56,3.79,4.43,6.08,8.4,6.72,4.72.77,12.56-2.05,15.44-7.61,3.96-7.65,2.83-14.83-1.23-21.86-2.09-3.62-4.26-7.26-6.91-10.47-4.25-5.14-6.21-10.97-6.84-17.46-.38-3.89-.98-7.78-3.25-11.1-1.54-2.26-3.22-4.44-4.97-6.55-2.73-3.29-4.84-6.96-5.64-11.1-.53-2.76-1.78-5.07-3-7.43-6.35-12.29-15.19-18.85-19.35-21.29Zm-79,57c-1,6-1.2,19.51-1.33,23.8-.47,16.02,2.14,31.68,5.83,47.17,2.18,9.18,5.46,17.97,10.64,25.95,1.44,2.21,2.95,4.3,5.75,4.69,3.44-1.46,4.58-3.13,5.03-6.84.57-4.76-1.01-9.26-1.56-13.88-.01-.1-.47-.16-.81-.26-.98,1.8.1,4.44-2.33,5.87-2.05-2.08-2.48-4.83-3.01-7.43-1.12-5.52-2.54-10.97-3.9-16.44-2.33-9.39-5.26-18.64-6.88-28.2-.46-2.74-.66-5.52-.97-8.28-2.66,5.82.54,32.84,2.54,42.84-7-19-9-59-9-69Zm-25-180c2.47-.79,5-5,16.29-5.4,13.71-.6,21.85,1.95,26.42,13.94.67,1.75,1.25,3.56,1.62,5.39,1.78,8.75,2.49,17.6-1.2,25.95-3.27,7.41-7.81,14.19-13.55,19.99-5.89,5.96-13.87,6.25-20.32.92-3.71-3.06-6.2-5.38-8.27-9.79-1.17-1.65-5.03-12.52-8-23-.27.57,2.34,11.05,2.38,11.25,1.86,9.27,5.44,17.72,12.6,24.14,7.37,6.6,16.82,6.5,24.43.01,6.04-5.14,10.39-11.73,14.04-18.58,6.55-12.27,5.04-25.01-.09-37.29-5.17-12.39-15.04-14.86-27.91-14.68-9.45.13-15.96,4.38-18.45,7.13Zm92,120c.2.2-.2-.2,0,0,3.31-3.15,10.54-11.57,13.14-15.39.81-1.19,1.53-2.45,2.15-3.75,2.55-5.34,1.91-10.39-1.63-15.06-.96-1.26-1.94-2.6-3.2-3.51-7.26-5.24-11.37-12.48-13.76-20.92-.59-2.08-1.46-4.08-2.27-6.09-1.29-3.23-2.92-6.3-4.97-9.11-2.86-3.92-6.3-7.14-11-8.79-2.39-.84-2.44-.84-5.6-.12,7.85,1.51,12.5,6.52,15.46,13.38,2.3,5.32,3.93,10.86,5.26,16.49,1.45,6.11,4.45,11.23,9.48,15.1,1.94,1.5,3.85,3.05,5.66,4.71,5.05,4.63,5.91,8.98,2.93,15.14-.87,1.81-1.99,3.52-3.17,5.16-1.67,2.33-6.74,10.49-8.49,12.75Zm-143.47-8.76c.08-1.7.18-3.12.2-4.55.03-3.09-1.21-5.61-3.61-7.53-5.9-4.71-16.79-4.77-22.79-.2-1.8,1.37-3.02,3.05-3.48,5.29-1.37,6.62,4.96,16.02,13.5,14.61,2.13-.35,4.23-.91,6.33-1.42,4.88-1.19,9.74-1.14,14.54.33,1.7.52,6.29,2.22,8.78,3.23-3.5-3.4-9.94-5.47-13.69-6.25-5.07-1.06-10.06-.2-15.09.15-4.63.32-6.93-1.2-8.83-5.41-1.52-3.35-.92-5.54,2.27-7.27,3.81-2.06,7.88-2.77,12.15-1.71,5.52,1.37,7.36,3.9,7.02,9.6-.03.57,0,1.13,0,1.94,3.63,2.77,13.94,3.34,18.18,2.94-3.01-.97-12.33-2.06-15.47-3.76Zm99.51-1.21c5.96,1.98,6.96.98,10.96-.02,4.32,2.7,10.36,5.2,14.26,2.58,1.73-1.17,2.86-2.81,3.97-4.51,1.53-2.36,3.39-4.3,6.04-4.68,2.83.05,3.72,1.61,6.68,3.44-3.96-5.83-9.19-9.02-14.91-3.57-1.35,1.29-2.47,2.82-3.77,4.17-3.25,3.36-8.65,4.31-12.28,2.57,2.37-2.57,8.89-4.13,11.7-7.21-8.88-.44-15.29,4.56-22.66,7.23Zm98.96,86.98c-.28-4.94-.93-11.16-2-15-1.32-4.72.11-8.07,2.22-12.41,1.07-2.2,2.07-4.46,2.87-6.78,1.72-4.95,1.18-9.7-1.73-14.09-2-3.01-4.15-5.92-6.63-8.55-.92-.98-4.6-4.5-6.72-5.18,2.71,3.86,7.49,9.65,9.15,13.18,2.32,4.94,3.32,8.93.85,13.82-1.1,2.19-2.25,4.67-3,7-.97,3.03-1.13,6.76,0,10,1.89,5.42,3.07,12.51,5,18Zm-118-18c1,3,1.02,4.61,1.19,5.3,1.5,6.31,2.16,12.72,2.91,19.16,1.3,11.16,4.42,22.01,7.6,32.79.32,1.07,1.3,3.75,2.3,5.75-.56-5.5-1.66-13.55-1.66-18.86,0-13.35-3.23-25.96-8.78-38.03-.5-1.09-1.56-4.11-3.56-6.11Zm-39-135c-5.57,2.51-12.21,8.26-14.53,13.54-1.99,4.54-2.86,9.37-3.67,14.21-1.75,10.4-4.53,22.52-8.81,32.25-.45,1.03-1,2-2,7,1.53-2.49,4.68-9.47,5.97-11.53,6.01-9.6,9.47-20.02,10.25-31.33.16-2.3.44-4.6.83-6.87.92-5.41,3.94-8.27,6.94-12.27.4-.53,4-4,5-5Zm-20,71c3-4,7.96-13.13,11-17,2-3,4.87-5.26,10.65-7.52,6.35-2.48,6.18-2.28,10.35-3.48,6.05-1.75,11.03-.99,17,1,3,1,12,5,14,6-.47-.23-5-6-14-10-11.59-3.95-16.7-2.5-28.04,1.36-5.79,1.97-10.52,5.67-12.86,11.53-1.59,3.97-6.51,14.07-8.1,18.11Zm64-19c-3.43,3.3-6,6-16,14-4.19,3.35-8.24,6.48-13,9-3.89,2.07-3,2-8,3-2.11.42-4,.53-9,0-4.22-.45-10-3-17-5,4,3,5,3,11,6,.77.38,7.16,2.79,8,3,8,2,14.04-.62,20-4,2.01-1.14,4.27-3.45,6-5,6.2-5.56,13.82-13.79,18-21Zm80,0c5.21,4.54,11.19,11.07,17,15,2.03,1.37,2.56,4.8,2.46,7.3-.15,3.79-.43,9.08-1.46,12.7-1.59,5.58-3.76,9.5-5.3,15.09,4.59-7.6,8.88-15.26,11.31-23.76.16-.55.25-1.13.33-1.7.89-6.33-.95-10.12-6.58-13.24-3.42-1.89-6.71-3.94-9.73-6.44-1.75-1.45-4.04-2.96-8.04-4.96Zm-112,61c8.13-.52,17.97-1.08,24.8-5.23,7.73-4.71,11.9-9.24,15.2-17.77.61-1.57,1.74-7.29,1-10-3.38,8.19-8.89,17.42-15,22-7.69,5.76-16.92,7.3-26,11Zm37-39c-5.25.91-12.76,3.35-16.93,5.58-10.25,5.47-15.29,13.68-20.07,24.42-.65,1.46-1.58,5.99-1,8,7.75-11.08,9-20,38-38Zm-27.14,43.97c21.14,2.03,36.14-4.97,37.14-18.97-3.8,6.32-9,10-13.08,12.06-7.8,3.02-15.65,5.81-24.06,6.91Zm9.14-133.97c-6.1,1.03-17,0-26-3,.57,1.23,9,5,14,6,6,1,10.35,3.12,23-3,0,0,4-2,9-9-9,8-20,9-20,9Zm-1,23c-7,1-13.22-1.47-19-5,3.23,4.08,10.19,9.38,15,9,14.83.09,22.53-9.79,26.34-20.25-7.66,13.75-22.34,16.25-22.34,16.25Zm-32,109c.21.35-8.05-13.93-15.81-16.23-6.14-1.68-12.87-.24-16.19,3.22,12.05-1.01,22.86,5.44,32,13.01Zm11.74,23.42c10.26-2.42,15.26-3.42,26.26-5.42-8.17-3.18-19-4-26.26,5.42Zm54.26-62.42c2.02,2.78,8,7,13,8,6,2,5-6,19,5-4.68-5.24-5-10-17-8-3.7.62-11.26-3.92-15-5Zm14.43-19.58c1.53-3.85,3.77-7,3.15-11.91,1.63,2.52,1.41,4.5,2.06,6.21.64,1.68.78,3.63,2.23,5.03,4.31-6.07,2.64-10.66-4.73-13.37-5.49,4.99-6.21,8.37-2.7,14.04Zm-80.43,59.58c-14,4-13,3-25,2,6.17,5.26,17.39,4.72,25-2Z" style="stroke-width:0px;"/><path d="m138,270c3.48,1.68,8.96,1.14,13,0,3-1,6.51-2.4,8-6.42-7.03,5.04-16,7.42-25,3.42,0,0,2,2,4,3Z" style="fill:#fff; stroke-width:0px;"/><path d="m332.84,355.04c1.08-.98,2.03-1.83,3.26-2.94.76,1.46.45,2.87.45,4.18.04,5.8-.66,11.52-2.19,17.12-.81,2.95-2.59,4.65-6.37,4.6,7.03-6.58,6.22-14.48,4.85-22.97Z" style="stroke-width:0px;"/><path d="m216.91,374.96c-5.1-7.13-6.97-14.84-8.74-22.59,3.28,4.76,3.07,12.13,11,13.58.19,2.86.65,5.81-2.26,9.01Z" style="stroke-width:0px;"/><path d="m216.56,180.25c3.4-3.21,4.97-6.77,4.42-11.54-.67-5.79,1.19-8.53,6.47-10.83,4.37-1.91,8.89-2.28,13.54-1.26,2.52.55,4.67,1.57,5.31,4.39.66,2.93-.16,5.45-2.34,7.45-2.16,1.97-4.83,3.1-7.53,4.14-4.3,1.66-8.65,3.15-12.83,5.14-4.73,2.26-9.3,5.85-13.33,9.03" style="stroke-width:0px;"/></g></g></svg>